<?xml version='1.0' encoding='utf-8'?>
<mlt LC_NUMERIC="C" producer="main_bin" version="7.9.0" root="/home/holger/Code/normcap/assets/screencast">
 <profile frame_rate_num="60" sample_aspect_num="1" display_aspect_den="9" colorspace="709" progressive="1" description="4K UHD 2160p 60 fps" display_aspect_num="16" frame_rate_den="1" width="3840" height="2160" sample_aspect_den="1"/>
 <producer id="producer4" in="00:00:00.000" out="00:01:06.633">
  <property name="length">3999</property>
  <property name="eof">pause</property>
  <property name="resource">screencast.webm</property>
  <property name="audio_index">-1</property>
  <property name="video_index">0</property>
  <property name="mute_on_pause">0</property>
  <property name="mlt_service">avformat-novalidate</property>
  <property name="meta.media.nb_streams">1</property>
  <property name="meta.media.0.stream.type">video</property>
  <property name="meta.media.0.stream.frame_rate">-nan</property>
  <property name="meta.media.0.stream.sample_aspect_ratio">1</property>
  <property name="meta.media.0.codec.width">3840</property>
  <property name="meta.media.0.codec.height">2160</property>
  <property name="meta.media.0.codec.rotate">0</property>
  <property name="meta.media.0.codec.pix_fmt">yuv420p</property>
  <property name="meta.media.0.codec.sample_aspect_ratio">0</property>
  <property name="meta.media.0.codec.colorspace">709</property>
  <property name="meta.media.0.codec.color_trc">1</property>
  <property name="meta.media.0.codec.name">vp8</property>
  <property name="meta.media.0.codec.long_name">On2 VP8</property>
  <property name="meta.media.0.codec.bit_rate">0</property>
  <property name="meta.attr.0.stream.language.markup">eng</property>
  <property name="meta.attr.0.stream.title.markup">Video</property>
  <property name="meta.attr.encoder.markup">GStreamer matroskamux version 1.20.3</property>
  <property name="meta.attr.creation_time.markup">2022-09-11T16:21:07.300360Z</property>
  <property name="seekable">1</property>
  <property name="meta.media.sample_aspect_num">1</property>
  <property name="meta.media.sample_aspect_den">1</property>
  <property name="aspect_ratio">1</property>
  <property name="kdenlive:clipname"/>
  <property name="meta.media.frame_rate_num">1000</property>
  <property name="meta.media.frame_rate_den">1</property>
  <property name="meta.media.colorspace">709</property>
  <property name="meta.media.color_trc">1</property>
  <property name="meta.media.has_b_frames">0</property>
  <property name="meta.media.width">3840</property>
  <property name="meta.media.height">2160</property>
  <property name="meta.media.color_range">mpeg</property>
  <property name="meta.media.top_field_first">0</property>
  <property name="meta.media.progressive">1</property>
  <property name="kdenlive:clip_type">2</property>
  <property name="kdenlive:proxy">-</property>
  <property name="kdenlive:originalurl">screencast.webm</property>
  <property name="kdenlive:id">2</property>
  <property name="kdenlive:file_size">28288684</property>
  <property name="kdenlive:file_hash">fcd5c6f921ce0cb8c5af5f9b721d4a17</property>
  <property name="kdenlive:folderid">-1</property>
 </producer>
 <producer id="producer7" in="00:00:00.000" out="00:00:32.917">
  <property name="length">00:00:32.933</property>
  <property name="eof">pause</property>
  <property name="resource">mask.png</property>
  <property name="ttl">25</property>
  <property name="aspect_ratio">1</property>
  <property name="progressive">1</property>
  <property name="seekable">1</property>
  <property name="meta.media.width">3840</property>
  <property name="meta.media.height">2160</property>
  <property name="mlt_service">qimage</property>
  <property name="kdenlive:clipname"/>
  <property name="kdenlive:duration">00:00:05.000</property>
  <property name="kdenlive:folderid">-1</property>
  <property name="kdenlive:clip_type">2</property>
  <property name="kdenlive:id">3</property>
  <property name="kdenlive:file_size">38789</property>
  <property name="kdenlive:file_hash">924c633631d4b5a6e16e0d52ae5fafef</property>
 </producer>
 <producer id="producer9" in="00:00:00.000" out="00:00:04.983">
  <property name="length">00:00:05.000</property>
  <property name="eof">pause</property>
  <property name="resource">greyscaled.png</property>
  <property name="ttl">25</property>
  <property name="aspect_ratio">1</property>
  <property name="progressive">1</property>
  <property name="seekable">1</property>
  <property name="meta.media.width">3840</property>
  <property name="meta.media.height">2160</property>
  <property name="mlt_service">qimage</property>
  <property name="kdenlive:clipname"/>
  <property name="kdenlive:duration">00:00:05.000</property>
  <property name="kdenlive:proxy">-</property>
  <property name="kdenlive:originalurl">greyscaled.png</property>
  <property name="kdenlive:clip_type">2</property>
  <property name="kdenlive:id">4</property>
  <property name="kdenlive:file_size">3231624</property>
  <property name="kdenlive:file_hash">c7f64c70b7dce51cee8a2b7a0182d9e5</property>
  <property name="kdenlive:folderid">-1</property>
 </producer>
 <producer id="producer8" in="00:00:00.000" out="00:00:16.733">
  <property name="length">1005</property>
  <property name="eof">pause</property>
  <property name="resource">mask_large.png</property>
  <property name="ttl">25</property>
  <property name="aspect_ratio">1</property>
  <property name="progressive">1</property>
  <property name="seekable">1</property>
  <property name="meta.media.width">3840</property>
  <property name="meta.media.height">2160</property>
  <property name="mlt_service">qimage</property>
  <property name="kdenlive:clipname"/>
  <property name="kdenlive:duration">00:00:05.000</property>
  <property name="kdenlive:proxy">-</property>
  <property name="kdenlive:originalurl">mask_large.png</property>
  <property name="kdenlive:clip_type">2</property>
  <property name="kdenlive:id">5</property>
  <property name="kdenlive:file_size">38872</property>
  <property name="kdenlive:file_hash">432f05e68d93a67d62887c1dc1c80b71</property>
  <property name="kdenlive:folderid">-1</property>
 </producer>
 <producer id="producer2" in="00:00:00.000" out="00:00:04.983">
  <property name="length">00:00:05.000</property>
  <property name="eof">pause</property>
  <property name="resource">arrows-border.png</property>
  <property name="ttl">25</property>
  <property name="aspect_ratio">1</property>
  <property name="progressive">1</property>
  <property name="seekable">1</property>
  <property name="meta.media.width">3840</property>
  <property name="meta.media.height">2160</property>
  <property name="mlt_service">qimage</property>
  <property name="kdenlive:clipname"/>
  <property name="kdenlive:duration">00:00:05.000</property>
  <property name="kdenlive:folderid">-1</property>
  <property name="kdenlive:clip_type">2</property>
  <property name="kdenlive:id">6</property>
  <property name="kdenlive:file_size">59172</property>
  <property name="kdenlive:file_hash">74a22e4f0f20143784e3191df9ef8349</property>
 </producer>
 <producer id="producer1" in="00:00:00.000" out="00:00:04.983">
  <property name="length">00:00:05.000</property>
  <property name="eof">pause</property>
  <property name="resource">arrows-notification.png</property>
  <property name="ttl">25</property>
  <property name="aspect_ratio">1</property>
  <property name="progressive">1</property>
  <property name="seekable">1</property>
  <property name="meta.media.width">3840</property>
  <property name="meta.media.height">2160</property>
  <property name="mlt_service">qimage</property>
  <property name="kdenlive:clipname"/>
  <property name="kdenlive:duration">00:00:05.000</property>
  <property name="kdenlive:folderid">-1</property>
  <property name="kdenlive:clip_type">2</property>
  <property name="kdenlive:id">7</property>
  <property name="kdenlive:file_size">74583</property>
  <property name="kdenlive:file_hash">f7b14a650716328fede96706cd1200f8</property>
 </producer>
 <producer id="producer5" in="00:00:00.000" out="00:00:04.983">
  <property name="length">00:00:05.000</property>
  <property name="eof">pause</property>
  <property name="resource">tray_icon.png</property>
  <property name="ttl">25</property>
  <property name="aspect_ratio">1</property>
  <property name="progressive">1</property>
  <property name="seekable">1</property>
  <property name="meta.media.width">3840</property>
  <property name="meta.media.height">2160</property>
  <property name="mlt_service">qimage</property>
  <property name="kdenlive:clipname"/>
  <property name="kdenlive:duration">00:00:05.000</property>
  <property name="kdenlive:proxy">-</property>
  <property name="kdenlive:originalurl">tray_icon.png</property>
  <property name="kdenlive:clip_type">2</property>
  <property name="kdenlive:id">8</property>
  <property name="kdenlive:file_size">6063654</property>
  <property name="kdenlive:file_hash">6693499d9d5e7431d98dd3fa0d3a7d05</property>
  <property name="kdenlive:folderid">-1</property>
 </producer>
 <producer id="producer6" in="00:00:00.000" out="00:00:04.983">
  <property name="length">00:00:05.000</property>
  <property name="eof">pause</property>
  <property name="resource">arrow-menu.png</property>
  <property name="ttl">25</property>
  <property name="aspect_ratio">1</property>
  <property name="progressive">1</property>
  <property name="seekable">1</property>
  <property name="meta.media.width">3840</property>
  <property name="meta.media.height">2160</property>
  <property name="mlt_service">qimage</property>
  <property name="kdenlive:clipname"/>
  <property name="kdenlive:duration">00:00:05.000</property>
  <property name="kdenlive:folderid">-1</property>
  <property name="kdenlive:clip_type">2</property>
  <property name="kdenlive:id">9</property>
  <property name="kdenlive:file_size">54250</property>
  <property name="kdenlive:file_hash">f40e072effa160c5908cf956b18eeb29</property>
 </producer>
 <producer id="producer0" in="00:00:00.000" out="00:00:28.467">
  <property name="length">00:00:28.483</property>
  <property name="eof">pause</property>
  <property name="resource">dock.png</property>
  <property name="ttl">25</property>
  <property name="aspect_ratio">1</property>
  <property name="progressive">1</property>
  <property name="seekable">1</property>
  <property name="meta.media.width">3840</property>
  <property name="meta.media.height">2160</property>
  <property name="mlt_service">qimage</property>
  <property name="kdenlive:clipname"/>
  <property name="kdenlive:duration">00:00:05.000</property>
  <property name="kdenlive:folderid">-1</property>
  <property name="kdenlive:clip_type">2</property>
  <property name="kdenlive:id">10</property>
  <property name="kdenlive:file_size">285139</property>
  <property name="kdenlive:file_hash">83f3bc50ea3b3a6edb808f35e4e26141</property>
 </producer>
 <producer id="producer3" in="00:00:00.000" out="00:00:04.983">
  <property name="length">00:00:05.000</property>
  <property name="eof">pause</property>
  <property name="resource">arrow-select.png</property>
  <property name="ttl">25</property>
  <property name="aspect_ratio">1</property>
  <property name="progressive">1</property>
  <property name="seekable">1</property>
  <property name="meta.media.width">3840</property>
  <property name="meta.media.height">2160</property>
  <property name="mlt_service">qimage</property>
  <property name="kdenlive:clipname"/>
  <property name="kdenlive:duration">00:00:05.000</property>
  <property name="kdenlive:folderid">-1</property>
  <property name="kdenlive:clip_type">2</property>
  <property name="kdenlive:id">11</property>
  <property name="kdenlive:file_size">53489</property>
  <property name="kdenlive:file_hash">2b5a2af5ab525b162b2e8bb06fd97ca9</property>
 </producer>
 <playlist id="main_bin">
  <property name="kdenlive:docproperties.activeTrack">3</property>
  <property name="kdenlive:docproperties.audioChannels">2</property>
  <property name="kdenlive:docproperties.audioTarget">-1</property>
  <property name="kdenlive:docproperties.compositing">1</property>
  <property name="kdenlive:docproperties.disablepreview">0</property>
  <property name="kdenlive:docproperties.documentid">1662913748694</property>
  <property name="kdenlive:docproperties.enableTimelineZone">0</property>
  <property name="kdenlive:docproperties.enableexternalproxy">0</property>
  <property name="kdenlive:docproperties.enableproxy">0</property>
  <property name="kdenlive:docproperties.externalproxyparams"/>
  <property name="kdenlive:docproperties.generateimageproxy">0</property>
  <property name="kdenlive:docproperties.generateproxy">0</property>
  <property name="kdenlive:docproperties.groups">[
]
</property>
  <property name="kdenlive:docproperties.kdenliveversion">22.08.0</property>
  <property name="kdenlive:docproperties.position">1679</property>
  <property name="kdenlive:docproperties.previewextension"/>
  <property name="kdenlive:docproperties.previewparameters"/>
  <property name="kdenlive:docproperties.profile">uhd_2160p_60</property>
  <property name="kdenlive:docproperties.proxyextension"/>
  <property name="kdenlive:docproperties.proxyimageminsize">2000</property>
  <property name="kdenlive:docproperties.proxyimagesize">800</property>
  <property name="kdenlive:docproperties.proxyminsize">1000</property>
  <property name="kdenlive:docproperties.proxyparams"/>
  <property name="kdenlive:docproperties.proxyresize">640</property>
  <property name="kdenlive:docproperties.rendercategory">Ultra-High Definition (4K)</property>
  <property name="kdenlive:docproperties.rendercustomquality">100</property>
  <property name="kdenlive:docproperties.renderendguide">-1</property>
  <property name="kdenlive:docproperties.renderexportaudio">0</property>
  <property name="kdenlive:docproperties.rendermode">1</property>
  <property name="kdenlive:docproperties.renderplay">0</property>
  <property name="kdenlive:docproperties.renderpreview">0</property>
  <property name="kdenlive:docproperties.renderprofile">MP4-H265 (HEVC)</property>
  <property name="kdenlive:docproperties.renderratio">1</property>
  <property name="kdenlive:docproperties.renderrescale">0</property>
  <property name="kdenlive:docproperties.renderrescaleheight">450</property>
  <property name="kdenlive:docproperties.renderrescalewidth">800</property>
  <property name="kdenlive:docproperties.renderspeed">6</property>
  <property name="kdenlive:docproperties.renderstartguide">-1</property>
  <property name="kdenlive:docproperties.rendertcoverlay">0</property>
  <property name="kdenlive:docproperties.rendertctype">-1</property>
  <property name="kdenlive:docproperties.rendertwopass">0</property>
  <property name="kdenlive:docproperties.renderurl">normcap.mp4</property>
  <property name="kdenlive:docproperties.scrollPos">0</property>
  <property name="kdenlive:docproperties.seekOffset">30000</property>
  <property name="kdenlive:docproperties.version">1.04</property>
  <property name="kdenlive:docproperties.verticalzoom">1</property>
  <property name="kdenlive:docproperties.videoTarget">-1</property>
  <property name="kdenlive:docproperties.zonein">0</property>
  <property name="kdenlive:docproperties.zoneout">1739</property>
  <property name="kdenlive:docproperties.zoom">8</property>
  <property name="kdenlive:expandedFolders"/>
  <property name="kdenlive:documentnotes"/>
  <property name="xml_retain">1</property>
  <entry producer="producer4" in="00:00:00.000" out="00:01:06.633"/>
  <entry producer="producer7" in="00:00:00.000" out="00:00:32.917"/>
  <entry producer="producer9" in="00:00:00.000" out="00:00:04.983"/>
  <entry producer="producer8" in="00:00:00.000" out="00:00:16.733"/>
  <entry producer="producer2" in="00:00:00.000" out="00:00:04.983"/>
  <entry producer="producer1" in="00:00:00.000" out="00:00:04.983"/>
  <entry producer="producer5" in="00:00:00.000" out="00:00:04.983"/>
  <entry producer="producer6" in="00:00:00.000" out="00:00:04.983"/>
  <entry producer="producer0" in="00:00:00.000" out="00:00:28.467"/>
  <entry producer="producer3" in="00:00:00.000" out="00:00:04.983"/>
 </playlist>
 <producer id="black_track" in="00:00:00.000" out="00:08:49.267">
  <property name="length">2147483647</property>
  <property name="eof">continue</property>
  <property name="resource">black</property>
  <property name="aspect_ratio">1</property>
  <property name="mlt_service">color</property>
  <property name="mlt_image_format">rgba</property>
  <property name="set.test_audio">0</property>
 </producer>
 <playlist id="playlist0">
  <property name="kdenlive:audio_track">1</property>
 </playlist>
 <playlist id="playlist1">
  <property name="kdenlive:audio_track">1</property>
 </playlist>
 <tractor id="tractor0" in="00:00:00.000">
  <property name="kdenlive:audio_track">1</property>
  <property name="kdenlive:trackheight">69</property>
  <property name="kdenlive:timeline_active">1</property>
  <property name="kdenlive:collapsed">0</property>
  <property name="kdenlive:thumbs_format"/>
  <property name="kdenlive:audio_rec"/>
  <track hide="video" producer="playlist0"/>
  <track hide="video" producer="playlist1"/>
  <filter id="filter0">
   <property name="window">75</property>
   <property name="max_gain">20dB</property>
   <property name="mlt_service">volume</property>
   <property name="internal_added">237</property>
   <property name="disable">1</property>
  </filter>
  <filter id="filter1">
   <property name="channel">-1</property>
   <property name="mlt_service">panner</property>
   <property name="internal_added">237</property>
   <property name="start">0.5</property>
   <property name="disable">1</property>
  </filter>
  <filter id="filter2">
   <property name="iec_scale">0</property>
   <property name="mlt_service">audiolevel</property>
   <property name="peak">1</property>
   <property name="disable">1</property>
  </filter>
 </tractor>
 <playlist id="playlist2">
  <property name="kdenlive:audio_track">1</property>
 </playlist>
 <playlist id="playlist3">
  <property name="kdenlive:audio_track">1</property>
 </playlist>
 <tractor id="tractor1" in="00:00:00.000">
  <property name="kdenlive:audio_track">1</property>
  <property name="kdenlive:trackheight">69</property>
  <property name="kdenlive:timeline_active">1</property>
  <property name="kdenlive:collapsed">0</property>
  <property name="kdenlive:thumbs_format"/>
  <property name="kdenlive:audio_rec"/>
  <track hide="video" producer="playlist2"/>
  <track hide="video" producer="playlist3"/>
  <filter id="filter3">
   <property name="window">75</property>
   <property name="max_gain">20dB</property>
   <property name="mlt_service">volume</property>
   <property name="internal_added">237</property>
   <property name="disable">1</property>
  </filter>
  <filter id="filter4">
   <property name="channel">-1</property>
   <property name="mlt_service">panner</property>
   <property name="internal_added">237</property>
   <property name="start">0.5</property>
   <property name="disable">1</property>
  </filter>
  <filter id="filter5">
   <property name="iec_scale">0</property>
   <property name="mlt_service">audiolevel</property>
   <property name="peak">1</property>
   <property name="disable">1</property>
  </filter>
 </tractor>
 <playlist id="playlist4">
  <entry producer="producer9" in="00:00:00.000" out="00:00:04.383">
   <property name="kdenlive:id">4</property>
  </entry>
  <entry producer="producer0" in="00:00:00.000" out="00:00:24.750">
   <property name="kdenlive:id">10</property>
  </entry>
 </playlist>
 <playlist id="playlist5"/>
 <tractor id="tractor2" in="00:00:00.000" out="00:00:29.150">
  <property name="kdenlive:trackheight">69</property>
  <property name="kdenlive:timeline_active">1</property>
  <property name="kdenlive:collapsed">0</property>
  <property name="kdenlive:thumbs_format"/>
  <property name="kdenlive:audio_rec"/>
  <track hide="audio" producer="playlist4"/>
  <track hide="audio" producer="playlist5"/>
 </tractor>
 <playlist id="playlist6">
  <entry producer="producer7" in="00:00:00.000" out="00:00:12.400">
   <property name="kdenlive:id">3</property>
  </entry>
  <entry producer="producer8" in="00:00:00.000" out="00:00:16.700">
   <property name="kdenlive:id">5</property>
  </entry>
 </playlist>
 <playlist id="playlist7"/>
 <tractor id="tractor3" in="00:00:00.000" out="00:00:29.117">
  <property name="kdenlive:trackheight">69</property>
  <property name="kdenlive:timeline_active">1</property>
  <property name="kdenlive:collapsed">0</property>
  <property name="kdenlive:thumbs_format"/>
  <property name="kdenlive:audio_rec"/>
  <track hide="audio" producer="playlist6"/>
  <track hide="audio" producer="playlist7"/>
 </tractor>
 <producer id="producer10" in="00:00:00.000" out="00:01:06.633">
  <property name="length">3999</property>
  <property name="eof">pause</property>
  <property name="resource">screencast.webm</property>
  <property name="audio_index">-1</property>
  <property name="video_index">0</property>
  <property name="mute_on_pause">0</property>
  <property name="mlt_service">avformat-novalidate</property>
  <property name="seekable">1</property>
  <property name="aspect_ratio">1</property>
  <property name="kdenlive:clipname"/>
  <property name="kdenlive:clip_type">2</property>
  <property name="kdenlive:proxy">-</property>
  <property name="kdenlive:originalurl">screencast.webm</property>
  <property name="kdenlive:id">2</property>
  <property name="kdenlive:file_size">28288684</property>
  <property name="kdenlive:file_hash">fcd5c6f921ce0cb8c5af5f9b721d4a17</property>
  <property name="kdenlive:folderid">-1</property>
  <property name="xml">was here</property>
  <property name="meta.media.nb_streams">1</property>
  <property name="meta.media.0.stream.type">video</property>
  <property name="meta.media.0.stream.frame_rate">-nan</property>
  <property name="meta.media.0.stream.sample_aspect_ratio">1</property>
  <property name="meta.media.0.codec.width">3840</property>
  <property name="meta.media.0.codec.height">2160</property>
  <property name="meta.media.0.codec.rotate">0</property>
  <property name="meta.media.0.codec.pix_fmt">yuv420p</property>
  <property name="meta.media.0.codec.sample_aspect_ratio">0</property>
  <property name="meta.media.0.codec.colorspace">709</property>
  <property name="meta.media.0.codec.color_trc">1</property>
  <property name="meta.media.0.codec.name">vp8</property>
  <property name="meta.media.0.codec.long_name">On2 VP8</property>
  <property name="meta.media.0.codec.bit_rate">0</property>
  <property name="meta.attr.0.stream.language.markup">eng</property>
  <property name="meta.attr.0.stream.title.markup">Video</property>
  <property name="meta.attr.encoder.markup">GStreamer matroskamux version 1.20.3</property>
  <property name="meta.attr.creation_time.markup">2022-09-11T16:21:07.300360Z</property>
  <property name="meta.media.sample_aspect_num">1</property>
  <property name="meta.media.sample_aspect_den">1</property>
  <property name="meta.media.frame_rate_num">1000</property>
  <property name="meta.media.frame_rate_den">1</property>
  <property name="meta.media.colorspace">709</property>
  <property name="meta.media.color_trc">1</property>
  <property name="meta.media.has_b_frames">0</property>
  <property name="meta.media.width">3840</property>
  <property name="meta.media.height">2160</property>
  <property name="meta.media.color_range">mpeg</property>
  <property name="meta.media.top_field_first">0</property>
  <property name="meta.media.progressive">1</property>
  <property name="set.test_audio">1</property>
  <property name="set.test_image">0</property>
 </producer>
 <producer id="producer11" in="00:00:00.000" out="00:00:34.817">
  <property name="length">2090</property>
  <property name="eof">pause</property>
  <property name="resource">1.913300:screencast.webm</property>
  <property name="aspect_ratio">1</property>
  <property name="meta.media.nb_streams">1</property>
  <property name="meta.media.0.stream.type">video</property>
  <property name="meta.media.0.stream.frame_rate">-nan</property>
  <property name="meta.media.0.stream.sample_aspect_ratio">1</property>
  <property name="meta.media.0.codec.width">3840</property>
  <property name="meta.media.0.codec.height">2160</property>
  <property name="meta.media.0.codec.rotate">0</property>
  <property name="meta.media.0.codec.pix_fmt">yuv420p</property>
  <property name="meta.media.0.codec.sample_aspect_ratio">0</property>
  <property name="meta.media.0.codec.colorspace">709</property>
  <property name="meta.media.0.codec.color_trc">1</property>
  <property name="meta.media.0.codec.name">vp8</property>
  <property name="meta.media.0.codec.long_name">On2 VP8</property>
  <property name="meta.media.0.codec.bit_rate">0</property>
  <property name="meta.attr.0.stream.language.markup">eng</property>
  <property name="meta.attr.0.stream.title.markup">Video</property>
  <property name="meta.attr.encoder.markup">GStreamer matroskamux version 1.20.3</property>
  <property name="meta.attr.creation_time.markup">2022-09-11T16:21:07.300360Z</property>
  <property name="seekable">1</property>
  <property name="meta.media.sample_aspect_num">1</property>
  <property name="meta.media.sample_aspect_den">1</property>
  <property name="audio_index">-1</property>
  <property name="video_index">0</property>
  <property name="mute_on_pause">1</property>
  <property name="warp_speed">1.9133</property>
  <property name="warp_resource">screencast.webm</property>
  <property name="mlt_service">timewarp</property>
  <property name="kdenlive:proxy">-</property>
  <property name="kdenlive:originalurl">screencast.webm</property>
  <property name="set.test_audio">1</property>
  <property name="set.test_image">0</property>
  <property name="kdenlive:id">2</property>
  <property name="warp_pitch">0</property>
 </producer>
 <producer id="producer12" in="00:00:00.000" out="00:00:44.417">
  <property name="length">2666</property>
  <property name="eof">pause</property>
  <property name="resource">1.500000:screencast.webm</property>
  <property name="aspect_ratio">1</property>
  <property name="meta.media.nb_streams">1</property>
  <property name="meta.media.0.stream.type">video</property>
  <property name="meta.media.0.stream.frame_rate">-nan</property>
  <property name="meta.media.0.stream.sample_aspect_ratio">1</property>
  <property name="meta.media.0.codec.width">3840</property>
  <property name="meta.media.0.codec.height">2160</property>
  <property name="meta.media.0.codec.rotate">0</property>
  <property name="meta.media.0.codec.pix_fmt">yuv420p</property>
  <property name="meta.media.0.codec.sample_aspect_ratio">0</property>
  <property name="meta.media.0.codec.colorspace">709</property>
  <property name="meta.media.0.codec.color_trc">1</property>
  <property name="meta.media.0.codec.name">vp8</property>
  <property name="meta.media.0.codec.long_name">On2 VP8</property>
  <property name="meta.media.0.codec.bit_rate">0</property>
  <property name="meta.attr.0.stream.language.markup">eng</property>
  <property name="meta.attr.0.stream.title.markup">Video</property>
  <property name="meta.attr.encoder.markup">GStreamer matroskamux version 1.20.3</property>
  <property name="meta.attr.creation_time.markup">2022-09-11T16:21:07.300360Z</property>
  <property name="seekable">1</property>
  <property name="meta.media.sample_aspect_num">1</property>
  <property name="meta.media.sample_aspect_den">1</property>
  <property name="audio_index">-1</property>
  <property name="video_index">0</property>
  <property name="mute_on_pause">1</property>
  <property name="warp_speed">1.5</property>
  <property name="warp_resource">screencast.webm</property>
  <property name="mlt_service">timewarp</property>
  <property name="kdenlive:proxy">-</property>
  <property name="kdenlive:originalurl">screencast.webm</property>
  <property name="set.test_audio">1</property>
  <property name="set.test_image">0</property>
  <property name="kdenlive:id">2</property>
  <property name="warp_pitch">0</property>
  <property name="meta.media.frame_rate_num">1000</property>
  <property name="meta.media.frame_rate_den">1</property>
  <property name="meta.media.colorspace">709</property>
  <property name="meta.media.color_trc">1</property>
  <property name="meta.media.has_b_frames">0</property>
  <property name="meta.media.width">3840</property>
  <property name="meta.media.height">2160</property>
  <property name="meta.media.color_range">mpeg</property>
  <property name="meta.media.top_field_first">0</property>
  <property name="meta.media.progressive">1</property>
 </producer>
 <producer id="producer13" in="00:00:00.000" out="00:00:27.750">
  <property name="length">1666</property>
  <property name="eof">pause</property>
  <property name="resource">2.400000:screencast.webm</property>
  <property name="aspect_ratio">1</property>
  <property name="meta.media.nb_streams">1</property>
  <property name="meta.media.0.stream.type">video</property>
  <property name="meta.media.0.stream.frame_rate">-nan</property>
  <property name="meta.media.0.stream.sample_aspect_ratio">1</property>
  <property name="meta.media.0.codec.width">3840</property>
  <property name="meta.media.0.codec.height">2160</property>
  <property name="meta.media.0.codec.rotate">0</property>
  <property name="meta.media.0.codec.pix_fmt">yuv420p</property>
  <property name="meta.media.0.codec.sample_aspect_ratio">0</property>
  <property name="meta.media.0.codec.colorspace">709</property>
  <property name="meta.media.0.codec.color_trc">1</property>
  <property name="meta.media.0.codec.name">vp8</property>
  <property name="meta.media.0.codec.long_name">On2 VP8</property>
  <property name="meta.media.0.codec.bit_rate">0</property>
  <property name="meta.attr.0.stream.language.markup">eng</property>
  <property name="meta.attr.0.stream.title.markup">Video</property>
  <property name="meta.attr.encoder.markup">GStreamer matroskamux version 1.20.3</property>
  <property name="meta.attr.creation_time.markup">2022-09-11T16:21:07.300360Z</property>
  <property name="seekable">1</property>
  <property name="meta.media.sample_aspect_num">1</property>
  <property name="meta.media.sample_aspect_den">1</property>
  <property name="audio_index">-1</property>
  <property name="video_index">0</property>
  <property name="mute_on_pause">1</property>
  <property name="warp_speed">2.4</property>
  <property name="warp_resource">screencast.webm</property>
  <property name="mlt_service">timewarp</property>
  <property name="kdenlive:proxy">-</property>
  <property name="kdenlive:originalurl">screencast.webm</property>
  <property name="set.test_audio">1</property>
  <property name="set.test_image">0</property>
  <property name="kdenlive:id">2</property>
  <property name="warp_pitch">0</property>
  <property name="meta.media.frame_rate_num">1000</property>
  <property name="meta.media.frame_rate_den">1</property>
  <property name="meta.media.colorspace">709</property>
  <property name="meta.media.color_trc">1</property>
  <property name="meta.media.has_b_frames">0</property>
  <property name="meta.media.width">3840</property>
  <property name="meta.media.height">2160</property>
  <property name="meta.media.color_range">mpeg</property>
  <property name="meta.media.top_field_first">0</property>
  <property name="meta.media.progressive">1</property>
 </producer>
 <playlist id="playlist8">
  <entry producer="producer10" in="00:00:05.867" out="00:00:10.883">
   <property name="kdenlive:id">2</property>
  </entry>
  <entry producer="producer10" in="00:00:20.967" out="00:00:24.083">
   <property name="kdenlive:id">2</property>
  </entry>
  <entry producer="producer11" in="00:00:12.567" out="00:00:16.583">
   <property name="kdenlive:id">2</property>
  </entry>
  <entry producer="producer5" in="00:00:00.000" out="00:00:00.917">
   <property name="kdenlive:id">8</property>
  </entry>
  <entry producer="producer10" in="00:00:31.800" out="00:00:35.567">
   <property name="kdenlive:id">2</property>
  </entry>
  <entry producer="producer10" in="00:00:36.383" out="00:00:40.650">
   <property name="kdenlive:id">2</property>
  </entry>
  <entry producer="producer12" in="00:00:28.050" out="00:00:31.217">
   <property name="kdenlive:id">2</property>
  </entry>
  <entry producer="producer13" in="00:00:22.167" out="00:00:24.467">
   <property name="kdenlive:id">2</property>
  </entry>
  <entry producer="producer10" in="00:00:58.800" out="00:01:01.217">
   <property name="kdenlive:id">2</property>
  </entry>
 </playlist>
 <playlist id="playlist9"/>
 <tractor id="tractor4" in="00:00:00.000" out="00:00:29.117">
  <property name="kdenlive:trackheight">69</property>
  <property name="kdenlive:timeline_active">1</property>
  <property name="kdenlive:collapsed">0</property>
  <property name="kdenlive:thumbs_format"/>
  <property name="kdenlive:audio_rec"/>
  <track hide="audio" producer="playlist8"/>
  <track hide="audio" producer="playlist9"/>
 </tractor>
 <playlist id="playlist10">
  <blank length="00:00:05.333"/>
  <entry producer="producer2" in="00:00:00.000" out="00:00:02.817">
   <property name="kdenlive:id">6</property>
   <filter id="filter6" in="00:00:02.133" out="00:00:02.817">
    <property name="start">1</property>
    <property name="level">1</property>
    <property name="mlt_service">brightness</property>
    <property name="kdenlive_id">fade_to_black</property>
    <property name="alpha">00:00:00.000=1;00:00:00.683=0</property>
    <property name="kdenlive:collapsed">0</property>
   </filter>
   <filter id="filter7" out="00:00:00.667">
    <property name="start">1</property>
    <property name="level">1</property>
    <property name="mlt_service">brightness</property>
    <property name="kdenlive_id">fade_from_black</property>
    <property name="alpha">00:00:00.000=0;00:00:00.667=1</property>
    <property name="kdenlive:collapsed">0</property>
   </filter>
  </entry>
  <blank length="00:00:00.417"/>
  <entry producer="producer3" in="00:00:00.000" out="00:00:03.550">
   <property name="kdenlive:id">11</property>
   <filter id="filter8" out="00:00:00.783">
    <property name="start">1</property>
    <property name="level">1</property>
    <property name="mlt_service">brightness</property>
    <property name="kdenlive_id">fade_from_black</property>
    <property name="alpha">00:00:00.000=0;00:00:00.783=1</property>
    <property name="kdenlive:collapsed">0</property>
   </filter>
   <filter id="filter9" in="00:00:02.817" out="00:00:03.550">
    <property name="start">1</property>
    <property name="level">1</property>
    <property name="mlt_service">brightness</property>
    <property name="kdenlive_id">fade_to_black</property>
    <property name="alpha">0=1;-1=0</property>
    <property name="kdenlive:collapsed">0</property>
   </filter>
  </entry>
  <blank length="00:00:01.617"/>
  <entry producer="producer1" in="00:00:00.000" out="00:00:03.383">
   <property name="kdenlive:id">7</property>
   <filter id="filter10" out="00:00:00.667">
    <property name="start">1</property>
    <property name="level">1</property>
    <property name="mlt_service">brightness</property>
    <property name="kdenlive_id">fade_from_black</property>
    <property name="alpha">00:00:00.000=0;00:00:00.667=1</property>
    <property name="kdenlive:collapsed">0</property>
   </filter>
   <filter id="filter11" in="00:00:02.700" out="00:00:03.383">
    <property name="start">1</property>
    <property name="level">1</property>
    <property name="mlt_service">brightness</property>
    <property name="kdenlive_id">fade_to_black</property>
    <property name="alpha">00:00:00.000=1;00:00:00.683=0</property>
    <property name="kdenlive:collapsed">0</property>
   </filter>
  </entry>
  <blank length="00:00:07.600"/>
  <entry producer="producer6" in="00:00:00.000" out="00:00:01.550">
   <property name="kdenlive:id">9</property>
   <filter id="filter12" out="00:00:00.333">
    <property name="start">1</property>
    <property name="level">1</property>
    <property name="mlt_service">brightness</property>
    <property name="kdenlive_id">fade_from_black</property>
    <property name="alpha">00:00:00.000=0;00:00:00.333=1</property>
    <property name="kdenlive:collapsed">0</property>
   </filter>
   <filter id="filter13" in="00:00:01.250" out="00:00:01.550">
    <property name="start">1</property>
    <property name="level">1</property>
    <property name="mlt_service">brightness</property>
    <property name="kdenlive_id">fade_to_black</property>
    <property name="alpha">00:00:00.000=1;00:00:00.300=0</property>
    <property name="kdenlive:collapsed">0</property>
   </filter>
  </entry>
 </playlist>
 <playlist id="playlist11"/>
 <tractor id="tractor5" in="00:00:00.000" out="00:00:26.317">
  <property name="kdenlive:trackheight">69</property>
  <property name="kdenlive:timeline_active">1</property>
  <property name="kdenlive:collapsed">0</property>
  <property name="kdenlive:thumbs_format"/>
  <property name="kdenlive:audio_rec"/>
  <track hide="audio" producer="playlist10"/>
  <track hide="audio" producer="playlist11"/>
 </tractor>
 <tractor id="tractor6" in="00:00:00.000" out="00:08:49.267">
  <track producer="black_track"/>
  <track producer="tractor0"/>
  <track producer="tractor1"/>
  <track producer="tractor2"/>
  <track producer="tractor3"/>
  <track producer="tractor4"/>
  <track producer="tractor5"/>
  <transition id="transition0" out="00:00:29.150">
   <property name="a_track">4</property>
   <property name="b_track">5</property>
   <property name="version">0.2</property>
   <property name="mlt_service">frei0r.alphaxor</property>
   <property name="kdenlive_id">frei0r.alphaxor</property>
   <property name="force_track">1</property>
  </transition>
  <transition id="transition1" out="00:00:29.150">
   <property name="a_track">3</property>
   <property name="b_track">4</property>
   <property name="version">0.1</property>
   <property name="mlt_service">frei0r.cairoaffineblend</property>
   <property name="kdenlive_id">frei0r.cairoaffineblend</property>
   <property name="force_track">1</property>
   <property name="0">00:00:00.000=0.4</property>
   <property name="1">00:00:00.000=0.4</property>
   <property name="2">00:00:00.000=0.2</property>
   <property name="3">00:00:00.000=0.2</property>
   <property name="4">00:00:00.000=0</property>
   <property name="5">00:00:00.000=1</property>
   <property name="6">normal</property>
   <property name="7">0</property>
   <property name="8">0</property>
  </transition>
  <transition id="transition2">
   <property name="a_track">0</property>
   <property name="b_track">1</property>
   <property name="mlt_service">mix</property>
   <property name="kdenlive_id">mix</property>
   <property name="internal_added">237</property>
   <property name="always_active">1</property>
   <property name="accepts_blanks">1</property>
   <property name="sum">1</property>
  </transition>
  <transition id="transition3">
   <property name="a_track">0</property>
   <property name="b_track">2</property>
   <property name="mlt_service">mix</property>
   <property name="kdenlive_id">mix</property>
   <property name="internal_added">237</property>
   <property name="always_active">1</property>
   <property name="accepts_blanks">1</property>
   <property name="sum">1</property>
  </transition>
  <transition id="transition4">
   <property name="a_track">0</property>
   <property name="b_track">3</property>
   <property name="version">0.1</property>
   <property name="mlt_service">frei0r.cairoblend</property>
   <property name="always_active">1</property>
   <property name="internal_added">237</property>
  </transition>
  <transition id="transition5">
   <property name="a_track">0</property>
   <property name="b_track">4</property>
   <property name="version">0.1</property>
   <property name="mlt_service">frei0r.cairoblend</property>
   <property name="always_active">1</property>
   <property name="internal_added">237</property>
  </transition>
  <transition id="transition6">
   <property name="a_track">0</property>
   <property name="b_track">5</property>
   <property name="version">0.1</property>
   <property name="mlt_service">frei0r.cairoblend</property>
   <property name="always_active">1</property>
   <property name="internal_added">237</property>
  </transition>
  <transition id="transition7">
   <property name="a_track">0</property>
   <property name="b_track">6</property>
   <property name="version">0.1</property>
   <property name="mlt_service">frei0r.cairoblend</property>
   <property name="always_active">1</property>
   <property name="internal_added">237</property>
  </transition>
  <filter id="filter14">
   <property name="window">75</property>
   <property name="max_gain">20dB</property>
   <property name="mlt_service">volume</property>
   <property name="internal_added">237</property>
   <property name="disable">1</property>
  </filter>
  <filter id="filter15">
   <property name="channel">-1</property>
   <property name="mlt_service">panner</property>
   <property name="internal_added">237</property>
   <property name="start">0.5</property>
   <property name="disable">1</property>
  </filter>
  <filter id="filter16">
   <property name="mlt_service">avfilter.subtitles</property>
   <property name="internal_added">237</property>
   <property name="av.filename">/tmp/1662913748694.srt</property>
   <property name="av.force_style">Fontsize=22,Outline=2,Alignment=2,</property>
   <property name="disable">0</property>
  </filter>
  <filter id="filter17">
   <property name="iec_scale">0</property>
   <property name="mlt_service">audiolevel</property>
   <property name="peak">1</property>
   <property name="disable">1</property>
  </filter>
 </tractor>
</mlt>
